<?xml version="1.0" encoding="utf-8"?>
<!-- Generator: Adobe Illustrator 25.4.0, SVG Export Plug-In . SVG Version: 6.00 Build 0)  -->
<svg version="1.1" id="Layer_1" xmlns="http://www.w3.org/2000/svg" xmlns:xlink="http://www.w3.org/1999/xlink" x="0px" y="0px"
	 viewBox="0 0 322.5 132.7" style="enable-background:new 0 0 322.5 132.7;" xml:space="preserve">
<style type="text/css">
	.st0{fill:#011EB0;}
	.st1{clip-path:url(#SVGID_00000116214366121160320780000011548079359127641510_);}
	.st2{fill:#0D95E7;}
	.st3{fill:#00C0FF;}
	.st4{fill:#001C93;}
	.st5{clip-path:url(#SVGID_00000116214366121160320780000011548079359127641510_);fill:#FF95FE;}
	.st6{fill:#474757;}
	.st7{opacity:0.13;}
	.st8{fill:#32323F;}
	.st9{fill:#FFFFFF;}
	.st10{fill:#DDDDDD;}
	.st11{fill:#BAC0D8;}
	.st12{fill:#ACAFBC;}
	.st13{clip-path:url(#SVGID_00000183233858131263571850000008882690398430916788_);}
	.st14{fill:#AAFFF9;}
	.st15{clip-path:url(#SVGID_00000076604171374532322180000006787383785035573895_);}
	.st16{fill:#ABFEF9;}
</style>
<g id="Basic_DarkRed">
	<g id="premium-water">
		<path class="st0" d="M232.2,37.7h34.9c27.3,0.1,49.3,15.7,49.2,45.4v19.4c3.5,0,6.3,3.1,6.3,6.9s-2.8,6.9-6.3,6.9l-225-0.8
			L19,102.8c-3.4-0.2-6.1-3.1-6-6.5c0-3.7,2.7-6.6,6-6.6V46.9c0-8.6,6.5-15.5,14.3-15.5h2.2c32.9,0.2,56.1-8.1,84.9-23.8l6.2-3.4
			c3.5-1.8,7.4-3,11.3-3.5c6.4-0.6,50.7,1.6,50.7,1.6s14-2,21.5,11.1s22.7,25,22.7,25"/>
		<g>
			<defs>
				<path id="SVGID_1_" d="M232.2,37.7h34.9c27.3,0.1,49.3,15.7,49.2,45.4v19.4c3.5,0,6.3,3.1,6.3,6.9s-2.8,6.9-6.3,6.9l-225-0.8
					L19,102.8c-3.4-0.2-6.1-3.1-6-6.5c0-3.7,2.7-6.6,6-6.6V46.9c0-8.6,6.5-15.5,14.3-15.5h2.2c32.9,0.2,56.1-8.1,84.9-23.8l6.2-3.4
					c3.5-1.8,7.4-3,11.3-3.5c6.4-0.6,50.7,1.6,50.7,1.6s14-2,21.5,11.1s22.7,25,22.7,25"/>
			</defs>
			<clipPath id="SVGID_00000029730909164127370480000016645272006352298659_">
				<use xlink:href="#SVGID_1_"  style="overflow:visible;"/>
			</clipPath>
			<g style="clip-path:url(#SVGID_00000029730909164127370480000016645272006352298659_);">
				<polygon class="st2" points="161.2,-10.8 133.7,-9.2 129.8,53.5 132.1,54.5 				"/>
				<path class="st2" d="M99.1,0.6L78.8,16.1l42.5,38.4L124,54C121.6,54.5,99.1,0.6,99.1,0.6z"/>
				<polygon class="st2" points="108,60.7 54.1,17.3 33.2,31.4 106,63.6 				"/>
				<polygon class="st2" points="108,66.6 11.1,72.8 15.9,94.5 107,70.4 				"/>
				<polygon class="st2" points="112.5,69.6 92.2,118.3 118,121.1 115.2,69.6 				"/>
				<polygon class="st2" points="124,69.6 145.5,125.9 171.5,121.3 130.3,71.1 				"/>
				<polygon class="st2" points="134.3,65.5 219.1,125.5 245.6,120.6 138.3,63.5 				"/>
				<polygon class="st2" points="138.8,57.3 308.4,41.4 300.7,23.6 138.5,53.6 				"/>
				<polygon class="st2" points="140.3,58.6 138.6,61.9 330,102.5 333.6,84.2 				"/>
				<polygon class="st2" points="141.4,52.3 239,-2 197.6,-16.8 140.8,49.4 				"/>
			</g>
			<g style="clip-path:url(#SVGID_00000029730909164127370480000016645272006352298659_);">
				<path class="st3" d="M101.7,111.5c-0.6,0-1.2-0.3-1.5-0.8c-0.3-0.5-0.4-1.1-0.1-1.7c0.1-0.1,5.7-13.2,2.6-22.5
					c-0.9-1.1-3.6-4.5-5.8-9.4c-3.4-7.7-3.6-15.2-0.6-21.7c0.3-0.7,1.9-4.9,6.4-8.7c3.6-3.1,10.2-6.8,20.8-6.8
					c1.7,0,3.5,0.1,5.3,0.3c0.5,0,4.9,0.3,9.9,2.9c4.8,2.5,11,7.7,13.4,18.3c0.1,0.3,0.9,3.4,0.1,7.5c0,0.1,0.1,0.2,0.3,0.4
					c0.1,0.1,0.1,0.2,0.2,0.2c1.9,2.5,3.9,5.1,4.3,5.4c0,0,0.1,0.1,0.2,0.1c1.2,1.1,2.8,3.7,0.9,6.3c0,0-0.1,0.1-0.1,0.1
					c-0.1,0.1-1.3,1.3-3.1,1.9c0,0,0,0,0,0c0,0,0,0,0,0c0.4,0.3,0.9,1,1,1.8c0,0.5-0.1,1.3-0.8,2c-0.1,0.1-0.3,0.3-0.6,0.6
					c0.2,0.3,0.3,0.7,0.4,1c0.3,1.1,0,2.7-1.5,3.5c0,0-0.1,0-0.1,0.1c0.7,1,1.7,3.2,0.1,6.1c-0.2,0.5-1.7,3.2-5.8,3.2
					c-0.2,0-0.4,0-0.6,0c-1.2,0-2.4,0.1-2.6,0.2c-0.1,0.1-0.3,0.1-0.4,0.1c-0.5,0.1-2,0.2-2.8,0.2c-0.1,0-0.1,0-0.1,0
					c-0.2,1.1-0.9,5.3-2.4,7.4l-0.3,0.7c-0.3,0.7-0.9,1.1-1.6,1.1H101.7z M135.6,108c0.1-0.1,0.1-0.2,0.2-0.3c0.8-0.9,1.5-4.1,1.8-6
					c0-0.9,0.5-1.8,1.3-2.3c0.6-0.4,1.3-0.7,1.9-0.7c0.2,0,0.3,0,0.5,0.1c0.3,0,1.2-0.1,2.2-0.2c0.8-0.3,2.5-0.3,3.7-0.4l0.1,0
					c0.1,0,0.3,0,0.4,0c2,0,2.6-1.1,2.6-1.2c0,0,0-0.1,0.1-0.1c0.9-1.6,0.2-2.4,0-2.6c-0.1-0.1-0.2-0.2-0.3-0.3
					c-0.3-0.4-1.1-1.8,0.3-3.5c0.3-0.4,0.7-0.7,0.9-0.9c-0.1,0-0.1-0.1-0.2-0.1c-0.6-0.3-1-0.9-1-1.6c0-0.7,0.3-1.3,0.9-1.6
					c0.2-0.1,0.6-0.4,1-0.8c-0.6-0.9-0.8-2-0.8-2.4l0-0.1c0-1.5,1.1-2.5,2.3-2.8c0.9-0.2,1.6-0.8,1.9-1c0.3-0.5-0.4-1.3-0.5-1.4
					c-0.8-0.6-2.4-2.6-4.9-6c-1.5-1.5-1.4-2.9-1.3-3.4c0.7-3.4,0.1-6,0-6.1c-1.7-7.5-5.6-12.8-11.6-16c-4.4-2.4-8.5-2.6-8.5-2.6
					l-0.1,0c-1.7-0.2-3.3-0.3-4.9-0.3c-7.5,0-13.9,2-18.4,5.9c-4.1,3.5-5.5,7.3-5.5,7.4c0,0.1,0,0.1-0.1,0.2
					c-6.3,13.4,5.9,27.5,6,27.6c0.2,0.2,0.3,0.4,0.3,0.6c2.9,8.1,0,18.3-1.7,22.9H135.6z"/>
				<path class="st4" d="M123.6,40.4c1.6,0,3.4,0.1,5.2,0.3c0.5,0,4.8,0.3,9.7,2.9c4.7,2.5,10.8,7.6,13.2,18c0.1,0.4,0.9,3.4,0,7.4
					c0,0.1,0.1,0.3,0.5,0.7c0.1,0.1,0.1,0.1,0.2,0.2c1.7,2.3,3.9,5.1,4.4,5.5c0.1,0,0.1,0.1,0.2,0.1c1,1,2.6,3.3,0.8,5.6
					c0,0-0.1,0.1-0.1,0.1c-0.1,0.1-1.4,1.4-3.3,1.9c0.1,0.3,0.2,0.6,0.3,0.7c0,0,0.1,0,0.1,0.1c0.3,0.3,0.7,0.8,0.8,1.5
					c0,0.4-0.1,1-0.6,1.6c-0.1,0.1-0.5,0.5-0.9,0.9c0.3,0.3,0.5,0.7,0.5,1.1c0.3,0.9,0.1,2.3-1.3,3c-0.2,0.1-0.3,0.3-0.5,0.5
					c0.9,1.1,1.8,3.2,0.3,5.9c-0.3,0.5-1.6,3-5.4,3c-0.2,0-0.3,0-0.5,0c-1.2,0-2.5,0.1-2.8,0.2c-0.1,0-0.2,0.1-0.3,0.1
					c-0.5,0.1-2,0.2-2.8,0.2c-0.1,0-0.1,0-0.2,0c-0.1,0-0.1,0-0.2,0c-0.1,0-0.2,0.1-0.2,0.1c0,0.1,0,0.1,0,0.2
					c-0.1,0.5-0.9,5.3-2.4,7.4l-0.3,0.8c-0.2,0.5-0.7,0.8-1.2,0.8h-35.1c-0.4,0-0.8-0.2-1.1-0.6c-0.2-0.4-0.3-0.8-0.1-1.2
					c0.1-0.2,5.8-13.5,2.6-23c-0.7-0.9-3.6-4.4-5.8-9.4c-3.3-7.6-3.5-14.9-0.6-21.3c0.2-0.6,1.8-4.8,6.3-8.6
					C106.9,43.9,113.3,40.4,123.6,40.4 M103.6,108.5h32.3l0.1-0.2c0-0.1,0.1-0.2,0.2-0.3c0.9-1.1,1.6-4.3,1.9-6.2
					c0-0.8,0.4-1.5,1.1-2c0.4-0.3,1-0.6,1.6-0.6c0.1,0,0.3,0,0.4,0c0,0,0,0,0.1,0c0.4,0,1.4-0.1,2.3-0.2c0.9-0.3,2.6-0.3,3.6-0.4
					c0,0,0.1,0,0.1,0c0.1,0,0.3,0,0.4,0c2.3,0,3-1.3,3.1-1.5c0-0.1,0-0.1,0.1-0.1c1.1-2,0.1-3-0.1-3.2c-0.1-0.1-0.2-0.1-0.2-0.2
					c-0.3-0.4-0.9-1.5,0.3-2.9c0.4-0.5,0.9-0.9,1-0.9c0.1-0.1,0.2-0.1,0.3-0.2c0,0,0,0,0,0c0-0.1,0-0.1-0.1-0.2
					c-0.1-0.1-0.4-0.4-0.6-0.5c-0.4-0.2-0.7-0.6-0.7-1.1c0-0.5,0.2-0.9,0.7-1.2c0.4-0.2,1-0.8,1.4-1.2c-0.8-0.9-0.9-2.2-0.9-2.5
					c0,0,0-0.1,0-0.1c0-1.2,0.9-2,1.9-2.3c0,0,0,0,0.1,0c1.1-0.2,1.9-1,2-1.1c0.6-0.9-0.3-1.8-0.5-2c-0.9-0.8-3.1-3.6-4.9-5.9
					c-1.4-1.4-1.3-2.6-1.2-3c0.8-3.6,0-6.3,0-6.3c0,0,0,0,0-0.1c-1.8-7.5-5.7-13-11.8-16.3c-4.6-2.4-8.7-2.6-8.7-2.6
					c0,0-0.1,0-0.1,0c-1.7-0.2-3.4-0.3-5-0.3c-7.6,0-14,2-18.7,6c-4.3,3.6-5.6,7.6-5.7,7.6c0,0,0,0.1-0.1,0.1
					c-6.4,13.7,5.9,28,6.1,28.1c0.1,0.1,0.2,0.3,0.2,0.4C108.5,93.6,105.2,104.3,103.6,108.5 M151.7,69.1
					C151.7,69.1,151.7,69.1,151.7,69.1C151.7,69.1,151.7,69.1,151.7,69.1 M151.7,69.1C151.7,69.1,151.7,69.1,151.7,69.1
					C151.7,69.1,151.7,69.1,151.7,69.1 M151.7,69.1C151.7,69.1,151.7,69.1,151.7,69.1C151.7,69.1,151.7,69.1,151.7,69.1 M151.7,69.1
					C151.7,69.1,151.7,69.1,151.7,69.1C151.7,69.1,151.7,69.1,151.7,69.1 M151.7,69.1C151.7,69.1,151.7,69.1,151.7,69.1
					C151.7,69.1,151.7,69.1,151.7,69.1 M156.8,75.3C156.8,75.3,156.8,75.3,156.8,75.3C156.8,75.3,156.8,75.3,156.8,75.3
					 M140.6,101.7C140.6,101.7,140.6,101.7,140.6,101.7C140.6,101.7,140.6,101.7,140.6,101.7 M123.6,39.4c-10.8,0-17.4,3.8-21.1,6.9
					c-4.5,3.9-6.2,8-6.6,8.9c-3,6.6-2.8,14.2,0.6,22c2.1,4.8,4.8,8.3,5.8,9.5c2.9,9.1-2.6,22-2.6,22.1c-0.3,0.7-0.2,1.5,0.2,2.2
					c0.4,0.6,1.1,1,1.9,1h35.1c0.9,0,1.8-0.6,2.1-1.4l0.3-0.7c1.4-2,2.1-5.6,2.4-7.1c0.9,0,2.1-0.2,2.6-0.2c0.2,0,0.4-0.1,0.6-0.1
					c0.2,0,1.2-0.1,2.4-0.2c0.2,0,0.4,0,0.5,0c4.3,0,6-2.9,6.3-3.5c1.5-2.8,0.8-5,0.1-6.2c1.4-1,1.7-2.5,1.4-3.8
					c0-0.3-0.1-0.5-0.2-0.8c0.2-0.2,0.3-0.3,0.3-0.4c0.8-0.8,0.9-1.7,0.9-2.4c0-0.6-0.3-1.1-0.6-1.6c1.4-0.6,2.3-1.5,2.5-1.8
					c0-0.1,0.1-0.1,0.1-0.2c2.2-2.8,0.3-5.8-0.9-6.9c-0.1-0.1-0.1-0.1-0.2-0.2c-0.4-0.4-2.3-2.7-4.2-5.3c-0.1-0.1-0.2-0.2-0.3-0.3
					c-0.1-0.1-0.1-0.1-0.2-0.2c0.8-4,0-7-0.1-7.5c-2.5-10.7-8.8-16-13.7-18.6c-5-2.6-9.5-3-10.1-3C127.1,39.5,125.3,39.4,123.6,39.4
					L123.6,39.4z M105,107.5c1.7-4.9,4.2-14.7,1.4-22.6c-0.1-0.3-0.2-0.5-0.4-0.8c-0.1-0.1-12-13.9-5.9-27c0-0.1,0.1-0.2,0.1-0.2
					c0,0,1.4-3.8,5.4-7.2c4.5-3.8,10.7-5.7,18.1-5.7c1.6,0,3.2,0.1,4.9,0.3c0,0,0.1,0,0.1,0c0,0,4,0.2,8.3,2.5
					c5.8,3.1,9.6,8.3,11.3,15.6c0,0,0,0.1,0,0.1c0,0,0.7,2.5,0,5.8c-0.1,0.6-0.3,2.2,1.4,3.8c3.6,4.8,4.6,5.7,4.9,6
					c0.3,0.3,0.4,0.6,0.4,0.7c-0.2,0.2-0.8,0.6-1.5,0.8c0,0-0.1,0-0.1,0c-1.4,0.4-2.7,1.6-2.6,3.3c0,0,0,0.1,0,0.1
					c0,0.3,0.2,1.3,0.7,2.3c-0.3,0.3-0.5,0.4-0.6,0.5c-0.8,0.4-1.2,1.2-1.2,2.1c0,0.7,0.3,1.3,0.8,1.7c-0.2,0.2-0.3,0.3-0.5,0.5
					c-1.7,2.1-0.7,3.7-0.4,4.2c0.1,0.1,0.2,0.3,0.4,0.4c0.1,0.1,0.6,0.7-0.1,1.9c-0.1,0.1-0.1,0.1-0.1,0.2c-0.1,0.1-0.6,0.9-2.2,0.9
					c-0.1,0-0.2,0-0.3,0c0,0-0.1,0-0.1,0c-1.2,0-2.8,0.1-3.8,0.4c-0.9,0.1-1.7,0.2-2,0.2c-0.2,0-0.3,0-0.5,0c-1,0-1.9,0.5-2.2,0.8
					c-0.9,0.7-1.5,1.7-1.5,2.7c-0.3,2.1-1.1,4.9-1.7,5.7c0,0-0.1,0.1-0.1,0.1H105L105,107.5z"/>
			</g>
			<path style="clip-path:url(#SVGID_00000029730909164127370480000016645272006352298659_);fill:#FF95FE;" d="M144.5,58.9
				c0.6-0.9-0.5-1.7-1-2l-1.8,0.2l-1.6,1.4c-0.1,0.1-0.2,0-0.1-0.1l1.4-1.7l2.2-0.3c0.2-0.8-0.6-1.5-0.6-1.5
				c0.5-1.2-0.1-1.7-0.1-1.7c-0.2,0-0.5-0.7-0.5-0.7c-0.3-1.3-1.8-1.7-1.8-1.7c-0.5,0.1-1-0.5-1-0.5c-0.8-1-2.4-1.7-3.3-2l-2.1,2.9
				l-4.6,1.3V54c0,0.1-0.2,0.2-0.2,0l-0.3-1.9l4.4-1.7l2-2.5c-0.3-0.6-1.1-1.2-1.1-1.2c-0.8-0.4-3.3-0.5-3.3-0.5
				c-2.1-1.6-4.3-0.7-4.3-0.7c-1-1.2-2.8-0.6-2.8-0.6l-3.3,0.1c-1.9-0.6-3.9,0.8-4.7,1.4l1.6,2.6l-0.7,3c0,0.1-0.2,0.1-0.2,0
				l0.2-2.9l-1.9-2.5c-1.5-0.1-2.3,0.8-2.3,0.8c-1.3-0.1-2.1,0.8-2.1,0.8c-1.7,0.5-2.4,2.1-2.4,2.1c-2.7,0.5-2.9,2.6-2.9,2.6
				c-1.3,0.2-1.7,1.7-1.7,1.7c-3.1,3.5-2,5-2,5c-1.7,1.4-0.2,3-0.2,3c-1.4,1.9-0.1,2.6-0.1,2.6c-1.3,1.9,0,3.3,0,3.3
				c0.4,2,2.4,1.6,2.4,1.6c1,0.6,1.9,0,1.9,0c0.1,0.2,0.5,0.3,0.7,0.4l1.2-1.3l-0.4-2.3c0-0.1,0.2-0.2,0.2-0.1l1,2.5l-1.8,1.6
				c0,1.1,0.8,2.1,0.8,2.1c0.2,2,3.1,2.6,3.1,2.6c1.8,0.4,4-0.6,4-0.6c0.7-0.3,3.2-0.8,3.2-0.8c3.2-0.7,3.4-2.4,3.4-2.8l-0.8-1.3
				l2-3.4c0.1-0.1,0.2,0,0.2,0.1l-1.2,3.6l0.7,1.1c1.9,0.5,3.5-0.6,3.5-0.6c1.3,0.8,2.8-0.1,2.8-0.1c0-0.4,1.7-0.7,1.7-0.7
				c1.3-0.2,1.9-2,1.9-2c0.9,0.1,0.9-1.6,0.9-1.6c0.1,0.4,1.4,0.4,1.4,0.4c0.8,0.7,5.2-0.3,5.2-0.3c1.4,0.4,3.2-1.5,3.2-1.5
				c2-0.1,2.6-3.7,2.6-3.7C145.4,60.9,144.5,58.9,144.5,58.9z M112.7,58.9l-1.3,2c-0.1,0.2-0.3,0-0.3-0.1l0.7-1.7c0,0,0-0.1,0-0.1
				l-1.7-2.6c-0.1-0.2,0.1-0.3,0.2-0.2l2.3,2.6C112.7,58.8,112.7,58.9,112.7,58.9z M122.1,57.2l-1.7,1.1c-0.1,0.1-0.2-0.1-0.1-0.2
				l1.1-1c0,0,0,0,0-0.1V55c0-0.1,0.2-0.1,0.2,0l0.5,2.1C122.2,57.2,122.2,57.2,122.1,57.2z M128.7,64l-2-1c0,0-0.1-0.1-0.1-0.1
				l0.2-2c0-0.1,0.2-0.1,0.2,0l0.1,1.4c0,0,0,0.1,0,0.1l1.6,1.3C128.9,63.9,128.8,64,128.7,64z"/>
		</g>
		<path class="st6" d="M316.2,102.6c3.5,0,6.3,3.1,6.3,6.9s-2.8,6.9-6.3,6.9l-225-0.8L19,102.8c-3.4-0.2-6.1-3.1-6-6.5
			c0-3.7,2.7-6.6,6-6.6l-0.2-31.1l13.3,13.9l-0.7,17.3v4.1l58,9.9L316.2,102.6z"/>
		<g class="st7">
			<path d="M316.3,86.7c0,0-18.2-45.3-84.8-25.5L18.9,46.9c0-8.6,6.5-15.5,14.3-15.5l43.2,0.2c8.9,0.1,141.8,18.5,141.8,18.5
				l14-12.4h34.9C267.1,37.7,316.3,36.1,316.3,86.7z"/>
		</g>
		
			<ellipse transform="matrix(0.9954 -9.579787e-02 9.579787e-02 0.9954 -8.2431 26.3016)" class="st8" cx="269.8" cy="99" rx="33.7" ry="33.5"/>
		
			<ellipse transform="matrix(0.9954 -9.589078e-02 9.589078e-02 0.9954 -8.25 26.3277)" class="st6" cx="269.8" cy="99" rx="32.8" ry="32.6"/>
		<ellipse transform="matrix(0.9954 -9.579792e-02 9.579792e-02 0.9954 -8.2431 26.3016)" cx="269.8" cy="99" rx="24.7" ry="24.5"/>
		
			<ellipse transform="matrix(0.9954 -9.584432e-02 9.584432e-02 0.9954 -8.2466 26.3147)" class="st9" cx="269.8" cy="99" rx="23.5" ry="23.3"/>
		
			<ellipse transform="matrix(0.9954 -9.589070e-02 9.589070e-02 0.9954 -8.25 26.3277)" class="st10" cx="269.8" cy="99" rx="22.3" ry="22.1"/>
		
			<ellipse transform="matrix(0.6505 -0.7595 0.7595 0.6505 19.1855 239.4203)" class="st11" cx="269.8" cy="98.9" rx="13.8" ry="13.8"/>
		
			<ellipse transform="matrix(0.995 -9.951798e-02 9.951798e-02 0.995 -8.5125 27.3405)" class="st12" cx="269.8" cy="99" rx="12.7" ry="12.7"/>
		<g>
			<g>
				<g>
					<g>
						<g>
							<defs>
								<path id="SVGID_00000112603715282746996120000003939748089879361204_" d="M204.9,48.7c-18.2-36.7-27.7-35.4-27.7-35.4
									s-24.1-0.8-31.7-0.1s-10.2,5.5-10.2,5.5l-7.6,11.7c0,0-5.1,6.9,7.5,8.3C145.4,39.9,204.9,48.7,204.9,48.7z"/>
							</defs>
							<clipPath id="SVGID_00000168076800663861664760000011210900942162608810_">
								<use xlink:href="#SVGID_00000112603715282746996120000003939748089879361204_"  style="overflow:visible;"/>
							</clipPath>
							<g style="clip-path:url(#SVGID_00000168076800663861664760000011210900942162608810_);">
								<path class="st14" d="M203.8,12h-81.2v36.7h82.3V12H203.8z"/>
							</g>
						</g>
					</g>
				</g>
			</g>
		</g>
		<g>
			<g>
				<g>
					<g>
						<g>
							<defs>
								<path id="SVGID_00000093863297516432758140000012739903810763049877_" d="M210.1,13.4l22.7,24.3l-12.7,11.7l-20.8-29.1
									c0,0-3.8-4.2,0-6.2L210.1,13.4z"/>
							</defs>
							<clipPath id="SVGID_00000043454986106475102610000017367695219423501194_">
								<use xlink:href="#SVGID_00000093863297516432758140000012739903810763049877_"  style="overflow:visible;"/>
							</clipPath>
							<g style="clip-path:url(#SVGID_00000043454986106475102610000017367695219423501194_);">
								<path class="st16" d="M232,13.4h-36.5v36h37.3v-36L232,13.4z"/>
							</g>
						</g>
					</g>
				</g>
			</g>
		</g>
	</g>
	
		<ellipse transform="matrix(0.9954 -9.585594e-02 9.585594e-02 0.9954 -9.1461 8.0103)" class="st8" cx="78.8" cy="99.2" rx="33.7" ry="33.5"/>
	
		<ellipse transform="matrix(0.9954 -9.583271e-02 9.583271e-02 0.9954 -9.1439 8.0082)" class="st6" cx="78.8" cy="99.2" rx="32.8" ry="32.6"/>
	<ellipse transform="matrix(0.9954 -9.585591e-02 9.585591e-02 0.9954 -9.1461 8.0103)" cx="78.8" cy="99.2" rx="24.7" ry="24.5"/>
	
		<ellipse transform="matrix(0.9954 -9.584432e-02 9.584432e-02 0.9954 -9.145 8.0092)" class="st9" cx="78.8" cy="99.2" rx="23.5" ry="23.3"/>
	
		<ellipse transform="matrix(0.9954 -9.583273e-02 9.583273e-02 0.9954 -9.1439 8.0082)" class="st10" cx="78.8" cy="99.2" rx="22.3" ry="22.1"/>
	<ellipse class="st11" cx="79.6" cy="99.3" rx="13.9" ry="13.9"/>
	<ellipse class="st12" cx="79.6" cy="99.3" rx="12.6" ry="12.6"/>
</g>
</svg>
