<?xml version="1.0" encoding="utf-8"?>
<!-- Generator: Adobe Illustrator 25.0.0, SVG Export Plug-In . SVG Version: 6.00 Build 0)  -->
<svg version="1.1" id="Layer_1" xmlns="http://www.w3.org/2000/svg" xmlns:xlink="http://www.w3.org/1999/xlink" x="0px" y="0px"
	 viewBox="0 0 21.3 22.2" style="enable-background:new 0 0 21.3 22.2;" xml:space="preserve">
<style type="text/css">
	.st0{fill:#FFFFFF;}
</style>
<path id="Helmet_User" class="st0" d="M2.8,13.1c0.2,0.5,0.5,1,1,1.3c1.3,0.9,3.9,2.8,5.8,3.3l3.2,0.9c0.2,0.1,0.4-0.1,0.5-0.3
	c0,0,0-0.1,0-0.1l0,0l2.6,1.1c0.6,0.3,1.3,0,1.7-0.5c0.6-0.9,0.9-1.9,1.1-3c0,0,0,0,0,0c0,0,0-0.1,0-0.1c0.1-2.6-0.4-5.2-1.4-7.7
	c0,0,0-0.1-0.1-0.1v0c-1.1-2.9-3.9-4.9-7-5.1C4,2.3,2.7,7.2,2.7,8.7v3.5C2.7,12.5,2.7,12.8,2.8,13.1L2.8,13.1z M5.7,10.8
	c0.6,0,1,0.5,1,1c0,0,0,0,0,0c0,0.6-0.5,1-1,1l0,0c-0.6,0-1-0.5-1-1c0,0,0,0,0,0C4.7,11.3,5.2,10.8,5.7,10.8L5.7,10.8z M17.5,14.9
	c-1.4,0-2.7-0.5-3.8-1.3c-1.5-1.1-2.6-2.6-3.2-4.4c-0.2-0.6,0.1-1.6,0.7-1.6c0.6,0.1,1.2,0.4,1.7,0.8c1,0.7,2.3,1.1,3.5,0.9
	c0.2,0,0.3-0.1,0.4-0.2c0.7,1.9,1.1,3.8,1.1,5.8C17.8,14.9,17.6,14.8,17.5,14.9L17.5,14.9z"/>
</svg>
